<svg width="146" height="73" viewBox="0 0 146 73" fill="none" xmlns="http://www.w3.org/2000/svg">
<rect x="1" y="1" width="24" height="24" stroke="white" stroke-width="2"/>
<path d="M7.24691 18V7.5H8.85191L13.4419 15.165H12.6019L17.1169 7.5H18.7219L18.7369 18H16.8919L16.8769 10.395H17.2669L13.4269 16.8H12.5569L8.65691 10.395H9.10691V18H7.24691Z" fill="white"/>
<rect x="25" y="1" width="24" height="24" stroke="white" stroke-width="2"/>
<path d="M37.0165 18.15C36.1965 18.15 35.4415 18.015 34.7515 17.745C34.0615 17.475 33.4615 17.1 32.9515 16.62C32.4415 16.13 32.0465 15.56 31.7665 14.91C31.4865 14.25 31.3465 13.53 31.3465 12.75C31.3465 11.97 31.4865 11.255 31.7665 10.605C32.0465 9.945 32.4415 9.375 32.9515 8.895C33.4615 8.405 34.0615 8.025 34.7515 7.755C35.4415 7.485 36.1915 7.35 37.0015 7.35C37.8215 7.35 38.5715 7.485 39.2515 7.755C39.9415 8.025 40.5415 8.405 41.0515 8.895C41.5615 9.375 41.9565 9.945 42.2365 10.605C42.5165 11.255 42.6565 11.97 42.6565 12.75C42.6565 13.53 42.5165 14.25 42.2365 14.91C41.9565 15.57 41.5615 16.14 41.0515 16.62C40.5415 17.1 39.9415 17.475 39.2515 17.745C38.5715 18.015 37.8265 18.15 37.0165 18.15ZM37.0015 16.44C37.5315 16.44 38.0215 16.35 38.4715 16.17C38.9215 15.99 39.3115 15.735 39.6415 15.405C39.9715 15.065 40.2265 14.675 40.4065 14.235C40.5965 13.785 40.6915 13.29 40.6915 12.75C40.6915 12.21 40.5965 11.72 40.4065 11.28C40.2265 10.83 39.9715 10.44 39.6415 10.11C39.3115 9.77 38.9215 9.51 38.4715 9.33C38.0215 9.15 37.5315 9.06 37.0015 9.06C36.4715 9.06 35.9815 9.15 35.5315 9.33C35.0915 9.51 34.7015 9.77 34.3615 10.11C34.0315 10.44 33.7715 10.83 33.5815 11.28C33.4015 11.72 33.3115 12.21 33.3115 12.75C33.3115 13.28 33.4015 13.77 33.5815 14.22C33.7715 14.67 34.0315 15.065 34.3615 15.405C34.6915 15.735 35.0815 15.99 35.5315 16.17C35.9815 16.35 36.4715 16.44 37.0015 16.44Z" fill="white"/>
<rect x="49" y="1" width="24" height="24" stroke="white" stroke-width="2"/>
<path d="M60.9482 18.15C60.1282 18.15 59.3432 18.035 58.5932 17.805C57.8432 17.565 57.2482 17.26 56.8082 16.89L57.4832 15.375C57.9032 15.705 58.4232 15.98 59.0432 16.2C59.6632 16.42 60.2982 16.53 60.9482 16.53C61.4982 16.53 61.9432 16.47 62.2832 16.35C62.6232 16.23 62.8732 16.07 63.0332 15.87C63.1932 15.66 63.2732 15.425 63.2732 15.165C63.2732 14.845 63.1582 14.59 62.9282 14.4C62.6982 14.2 62.3982 14.045 62.0282 13.935C61.6682 13.815 61.2632 13.705 60.8132 13.605C60.3732 13.505 59.9282 13.39 59.4782 13.26C59.0382 13.12 58.6332 12.945 58.2632 12.735C57.9032 12.515 57.6082 12.225 57.3782 11.865C57.1482 11.505 57.0332 11.045 57.0332 10.485C57.0332 9.915 57.1832 9.395 57.4832 8.925C57.7932 8.445 58.2582 8.065 58.8782 7.785C59.5082 7.495 60.3032 7.35 61.2632 7.35C61.8932 7.35 62.5182 7.43 63.1382 7.59C63.7582 7.75 64.2982 7.98 64.7582 8.28L64.1432 9.795C63.6732 9.515 63.1882 9.31 62.6882 9.18C62.1882 9.04 61.7082 8.97 61.2482 8.97C60.7082 8.97 60.2682 9.035 59.9282 9.165C59.5982 9.295 59.3532 9.465 59.1932 9.675C59.0432 9.885 58.9682 10.125 58.9682 10.395C58.9682 10.715 59.0782 10.975 59.2982 11.175C59.5282 11.365 59.8232 11.515 60.1832 11.625C60.5532 11.735 60.9632 11.845 61.4132 11.955C61.8632 12.055 62.3082 12.17 62.7482 12.3C63.1982 12.43 63.6032 12.6 63.9632 12.81C64.3332 13.02 64.6282 13.305 64.8482 13.665C65.0782 14.025 65.1932 14.48 65.1932 15.03C65.1932 15.59 65.0382 16.11 64.7282 16.59C64.4282 17.06 63.9632 17.44 63.3332 17.73C62.7032 18.01 61.9082 18.15 60.9482 18.15Z" fill="white"/>
<rect x="73" y="1" width="24" height="24" stroke="white" stroke-width="2"/>
<path d="M84.0283 18V9.15H80.5483V7.5H89.4583V9.15H85.9783V18H84.0283Z" fill="white"/>
<rect x="97" y="1" width="24" height="24" fill="#B90000"/>
<rect x="97" y="1" width="24" height="24" stroke="white" stroke-width="2"/>
<path d="M109.017 18.15C108.197 18.15 107.442 18.015 106.752 17.745C106.062 17.475 105.462 17.1 104.952 16.62C104.442 16.13 104.047 15.56 103.767 14.91C103.487 14.25 103.347 13.53 103.347 12.75C103.347 11.97 103.487 11.255 103.767 10.605C104.047 9.945 104.442 9.375 104.952 8.895C105.462 8.405 106.062 8.025 106.752 7.755C107.442 7.485 108.192 7.35 109.002 7.35C109.822 7.35 110.572 7.485 111.252 7.755C111.942 8.025 112.542 8.405 113.052 8.895C113.562 9.375 113.957 9.945 114.237 10.605C114.517 11.255 114.657 11.97 114.657 12.75C114.657 13.53 114.517 14.25 114.237 14.91C113.957 15.57 113.562 16.14 113.052 16.62C112.542 17.1 111.942 17.475 111.252 17.745C110.572 18.015 109.827 18.15 109.017 18.15ZM109.002 16.44C109.532 16.44 110.022 16.35 110.472 16.17C110.922 15.99 111.312 15.735 111.642 15.405C111.972 15.065 112.227 14.675 112.407 14.235C112.597 13.785 112.692 13.29 112.692 12.75C112.692 12.21 112.597 11.72 112.407 11.28C112.227 10.83 111.972 10.44 111.642 10.11C111.312 9.77 110.922 9.51 110.472 9.33C110.022 9.15 109.532 9.06 109.002 9.06C108.472 9.06 107.982 9.15 107.532 9.33C107.092 9.51 106.702 9.77 106.362 10.11C106.032 10.44 105.772 10.83 105.582 11.28C105.402 11.72 105.312 12.21 105.312 12.75C105.312 13.28 105.402 13.77 105.582 14.22C105.772 14.67 106.032 15.065 106.362 15.405C106.692 15.735 107.082 15.99 107.532 16.17C107.982 16.35 108.472 16.44 109.002 16.44Z" fill="white"/>
<rect x="121" y="1" width="24" height="24" fill="#B90000"/>
<rect x="121" y="1" width="24" height="24" stroke="white" stroke-width="2"/>
<path d="M131.42 12.33H136.655V13.98H131.42V12.33ZM131.585 18H129.635V7.5H137.3V9.135H131.585V18Z" fill="white"/>
<rect x="1" y="25" width="24" height="24" stroke="white" stroke-width="2"/>
<path d="M8.21371 42V31.5H12.8037C13.9437 31.5 14.9437 31.72 15.8037 32.16C16.6637 32.6 17.3337 33.21 17.8137 33.99C18.2937 34.77 18.5337 35.69 18.5337 36.75C18.5337 37.8 18.2937 38.72 17.8137 39.51C17.3337 40.29 16.6637 40.9 15.8037 41.34C14.9437 41.78 13.9437 42 12.8037 42H8.21371ZM10.1637 40.35H12.7137C13.5037 40.35 14.1837 40.2 14.7537 39.9C15.3337 39.6 15.7787 39.18 16.0887 38.64C16.4087 38.1 16.5687 37.47 16.5687 36.75C16.5687 36.02 16.4087 35.39 16.0887 34.86C15.7787 34.32 15.3337 33.9 14.7537 33.6C14.1837 33.3 13.5037 33.15 12.7137 33.15H10.1637V40.35Z" fill="white"/>
<rect x="25" y="25" width="24" height="24" stroke="white" stroke-width="2"/>
<path d="M35.1856 35.865H40.4056V37.47H35.1856V35.865ZM35.3356 40.365H41.2606V42H33.3856V31.5H41.0506V33.135H35.3356V40.365Z" fill="white"/>
<rect x="49" y="25" width="24" height="24" stroke="white" stroke-width="2"/>
<path d="M60.9482 42.15C60.1282 42.15 59.3432 42.035 58.5932 41.805C57.8432 41.565 57.2482 41.26 56.8082 40.89L57.4832 39.375C57.9032 39.705 58.4232 39.98 59.0432 40.2C59.6632 40.42 60.2982 40.53 60.9482 40.53C61.4982 40.53 61.9432 40.47 62.2832 40.35C62.6232 40.23 62.8732 40.07 63.0332 39.87C63.1932 39.66 63.2732 39.425 63.2732 39.165C63.2732 38.845 63.1582 38.59 62.9282 38.4C62.6982 38.2 62.3982 38.045 62.0282 37.935C61.6682 37.815 61.2632 37.705 60.8132 37.605C60.3732 37.505 59.9282 37.39 59.4782 37.26C59.0382 37.12 58.6332 36.945 58.2632 36.735C57.9032 36.515 57.6082 36.225 57.3782 35.865C57.1482 35.505 57.0332 35.045 57.0332 34.485C57.0332 33.915 57.1832 33.395 57.4832 32.925C57.7932 32.445 58.2582 32.065 58.8782 31.785C59.5082 31.495 60.3032 31.35 61.2632 31.35C61.8932 31.35 62.5182 31.43 63.1382 31.59C63.7582 31.75 64.2982 31.98 64.7582 32.28L64.1432 33.795C63.6732 33.515 63.1882 33.31 62.6882 33.18C62.1882 33.04 61.7082 32.97 61.2482 32.97C60.7082 32.97 60.2682 33.035 59.9282 33.165C59.5982 33.295 59.3532 33.465 59.1932 33.675C59.0432 33.885 58.9682 34.125 58.9682 34.395C58.9682 34.715 59.0782 34.975 59.2982 35.175C59.5282 35.365 59.8232 35.515 60.1832 35.625C60.5532 35.735 60.9632 35.845 61.4132 35.955C61.8632 36.055 62.3082 36.17 62.7482 36.3C63.1982 36.43 63.6032 36.6 63.9632 36.81C64.3332 37.02 64.6282 37.305 64.8482 37.665C65.0782 38.025 65.1932 38.48 65.1932 39.03C65.1932 39.59 65.0382 40.11 64.7282 40.59C64.4282 41.06 63.9632 41.44 63.3332 41.73C62.7032 42.01 61.9082 42.15 60.9482 42.15Z" fill="white"/>
<rect x="73" y="25" width="24" height="24" stroke="white" stroke-width="2"/>
<path d="M84.015 42V31.5H85.965V42H84.015Z" fill="white"/>
<rect x="97" y="25" width="24" height="24" stroke="white" stroke-width="2"/>
<path d="M109.522 42.15C108.702 42.15 107.947 42.02 107.257 41.76C106.577 41.49 105.982 41.115 105.472 40.635C104.962 40.145 104.567 39.57 104.287 38.91C104.007 38.25 103.867 37.53 103.867 36.75C103.867 35.97 104.007 35.25 104.287 34.59C104.567 33.93 104.962 33.36 105.472 32.88C105.992 32.39 106.597 32.015 107.287 31.755C107.977 31.485 108.732 31.35 109.552 31.35C110.442 31.35 111.242 31.495 111.952 31.785C112.672 32.075 113.277 32.5 113.767 33.06L112.537 34.26C112.127 33.85 111.682 33.55 111.202 33.36C110.732 33.16 110.212 33.06 109.642 33.06C109.092 33.06 108.582 33.15 108.112 33.33C107.642 33.51 107.237 33.765 106.897 34.095C106.557 34.425 106.292 34.815 106.102 35.265C105.922 35.715 105.832 36.21 105.832 36.75C105.832 37.28 105.922 37.77 106.102 38.22C106.292 38.67 106.557 39.065 106.897 39.405C107.237 39.735 107.637 39.99 108.097 40.17C108.557 40.35 109.067 40.44 109.627 40.44C110.147 40.44 110.647 40.36 111.127 40.2C111.617 40.03 112.082 39.75 112.522 39.36L113.632 40.815C113.082 41.255 112.442 41.59 111.712 41.82C110.992 42.04 110.262 42.15 109.522 42.15ZM111.787 40.56V36.63H113.632V40.815L111.787 40.56Z" fill="white"/>
<rect x="121" y="25" width="24" height="24" stroke="white" stroke-width="2"/>
<path d="M128.338 42V31.5H129.943L136.528 39.585H135.733V31.5H137.668V42H136.063L129.478 33.915H130.273V42H128.338Z" fill="white"/>
<path d="M12.9445 65.56C12.4325 65.56 11.9405 65.488 11.4685 65.344C11.0045 65.192 10.6405 65.004 10.3765 64.78L10.7605 64.108C11.0245 64.316 11.3565 64.488 11.7565 64.624C12.1565 64.752 12.5725 64.816 13.0045 64.816C13.5805 64.816 14.0045 64.728 14.2765 64.552C14.5565 64.368 14.6965 64.112 14.6965 63.784C14.6965 63.552 14.6205 63.372 14.4685 63.244C14.3165 63.108 14.1245 63.008 13.8925 62.944C13.6605 62.872 13.3525 62.804 12.9685 62.74C12.4565 62.644 12.0445 62.548 11.7325 62.452C11.4205 62.348 11.1525 62.176 10.9285 61.936C10.7125 61.696 10.6045 61.364 10.6045 60.94C10.6045 60.412 10.8245 59.98 11.2645 59.644C11.7045 59.308 12.3165 59.14 13.1005 59.14C13.5085 59.14 13.9165 59.196 14.3245 59.308C14.7325 59.412 15.0685 59.552 15.3325 59.728L14.9605 60.412C14.4405 60.052 13.8205 59.872 13.1005 59.872C12.5565 59.872 12.1445 59.968 11.8645 60.16C11.5925 60.352 11.4565 60.604 11.4565 60.916C11.4565 61.156 11.5325 61.348 11.6845 61.492C11.8445 61.636 12.0405 61.744 12.2725 61.816C12.5045 61.88 12.8245 61.948 13.2325 62.02C13.7365 62.116 14.1405 62.212 14.4445 62.308C14.7485 62.404 15.0085 62.568 15.2245 62.8C15.4405 63.032 15.5485 63.352 15.5485 63.76C15.5485 64.312 15.3165 64.752 14.8525 65.08C14.3965 65.4 13.7605 65.56 12.9445 65.56Z" fill="white"/>
<path d="M39.0745 65.116C38.9145 65.26 38.7145 65.372 38.4745 65.452C38.2425 65.524 37.9985 65.56 37.7425 65.56C37.1505 65.56 36.6945 65.4 36.3745 65.08C36.0545 64.76 35.8945 64.308 35.8945 63.724V59.908H34.7665V59.188H35.8945V57.808H36.7465V59.188H38.6665V59.908H36.7465V63.676C36.7465 64.052 36.8385 64.34 37.0225 64.54C37.2145 64.732 37.4865 64.828 37.8385 64.828C38.0145 64.828 38.1825 64.8 38.3425 64.744C38.5105 64.688 38.6545 64.608 38.7745 64.504L39.0745 65.116Z" fill="white"/>
<path d="M63.8389 59.188V65.5H63.0229V64.348C62.7989 64.732 62.4909 65.032 62.0989 65.248C61.7069 65.456 61.2589 65.56 60.7549 65.56C59.9309 65.56 59.2789 65.332 58.7989 64.876C58.3269 64.412 58.0909 63.736 58.0909 62.848V59.188H58.9429V62.764C58.9429 63.428 59.1069 63.932 59.4349 64.276C59.7629 64.62 60.2309 64.792 60.8389 64.792C61.5029 64.792 62.0269 64.592 62.4109 64.192C62.7949 63.784 62.9869 63.22 62.9869 62.5V59.188H63.8389Z" fill="white"/>
<path d="M87.8816 56.596V65.5H87.0656V64.252C86.8096 64.676 86.4696 65 86.0456 65.224C85.6296 65.448 85.1576 65.56 84.6296 65.56C84.0376 65.56 83.5016 65.424 83.0216 65.152C82.5416 64.88 82.1656 64.5 81.8936 64.012C81.6216 63.524 81.4856 62.968 81.4856 62.344C81.4856 61.72 81.6216 61.164 81.8936 60.676C82.1656 60.188 82.5416 59.812 83.0216 59.548C83.5016 59.276 84.0376 59.14 84.6296 59.14C85.1416 59.14 85.6016 59.248 86.0096 59.464C86.4256 59.672 86.7656 59.98 87.0296 60.388V56.596H87.8816ZM84.7016 64.804C85.1416 64.804 85.5376 64.704 85.8896 64.504C86.2496 64.296 86.5296 64.004 86.7296 63.628C86.9376 63.252 87.0416 62.824 87.0416 62.344C87.0416 61.864 86.9376 61.436 86.7296 61.06C86.5296 60.684 86.2496 60.396 85.8896 60.196C85.5376 59.988 85.1416 59.884 84.7016 59.884C84.2536 59.884 83.8496 59.988 83.4896 60.196C83.1376 60.396 82.8576 60.684 82.6496 61.06C82.4496 61.436 82.3496 61.864 82.3496 62.344C82.3496 62.824 82.4496 63.252 82.6496 63.628C82.8576 64.004 83.1376 64.296 83.4896 64.504C83.8496 64.704 84.2536 64.804 84.7016 64.804Z" fill="white"/>
<path d="M108.577 59.188H109.429V65.5H108.577V59.188ZM109.009 57.808C108.833 57.808 108.685 57.748 108.565 57.628C108.445 57.508 108.385 57.364 108.385 57.196C108.385 57.036 108.445 56.896 108.565 56.776C108.685 56.656 108.833 56.596 109.009 56.596C109.185 56.596 109.333 56.656 109.453 56.776C109.573 56.888 109.633 57.024 109.633 57.184C109.633 57.36 109.573 57.508 109.453 57.628C109.333 57.748 109.185 57.808 109.009 57.808Z" fill="white"/>
<path d="M133.006 65.56C132.398 65.56 131.85 65.424 131.362 65.152C130.874 64.872 130.49 64.488 130.21 64C129.93 63.512 129.79 62.96 129.79 62.344C129.79 61.728 129.93 61.176 130.21 60.688C130.49 60.2 130.874 59.82 131.362 59.548C131.85 59.276 132.398 59.14 133.006 59.14C133.614 59.14 134.162 59.276 134.65 59.548C135.138 59.82 135.518 60.2 135.79 60.688C136.07 61.176 136.21 61.728 136.21 62.344C136.21 62.96 136.07 63.512 135.79 64C135.518 64.488 135.138 64.872 134.65 65.152C134.162 65.424 133.614 65.56 133.006 65.56ZM133.006 64.804C133.454 64.804 133.854 64.704 134.206 64.504C134.566 64.296 134.846 64.004 135.046 63.628C135.246 63.252 135.346 62.824 135.346 62.344C135.346 61.864 135.246 61.436 135.046 61.06C134.846 60.684 134.566 60.396 134.206 60.196C133.854 59.988 133.454 59.884 133.006 59.884C132.558 59.884 132.154 59.988 131.794 60.196C131.442 60.396 131.162 60.684 130.954 61.06C130.754 61.436 130.654 61.864 130.654 62.344C130.654 62.824 130.754 63.252 130.954 63.628C131.162 64.004 131.442 64.296 131.794 64.504C132.154 64.704 132.558 64.804 133.006 64.804Z" fill="white"/>
</svg>
